<?xml version="1.0" encoding="UTF-8"?>
<svg width="220" height="62" viewBox="0 0 220 62" xmlns="http://www.w3.org/2000/svg">
  <g>
    <path d="M0,61.655l0,-53.652c0,-4.401 3.601,-8.003 8.003,-8.003l53.223,0c4.4,0 8,3.602 8,8.003l-0,53.221c-0,0.133 -0.004,0.265 -0.01,0.397l-11.053,-10.93c-0.899,-0.89 -2.399,-1.337 -3.329,-0.99c-0.935,0.346 -2.361,-0.165 -3.166,-1.133l-13.061,-15.685c-0.802,-0.97 -2.134,-0.973 -2.944,-0.01l-10.922,12.972c-0.814,0.965 -2.328,1.161 -3.365,0.442l-2.628,-1.836c-1.037,-0.727 -2.546,-0.523 -3.36,0.447l-1.517,1.81c-0.809,0.966 -1.978,1.761 -2.589,1.758c-0.613,-0.002 -1.791,0.783 -2.612,1.742l-8.67,11.447Z" fill="#0050c8" fill-rule="nonzero"/>
    <path d="M38.654,36.235c-0.809,-0.975 -2.125,-0.973 -2.932,0.002l-8.376,10.13c-0.807,0.972 -0.667,1.114 0.315,0.314l2.553,-2.082c0.977,-0.8 2.335,-1.346 3.017,-1.211c0.676,0.128 1.637,-0.152 2.134,-0.63c0.492,-0.48 1.82,-0.411 2.951,0.152l3.166,1.585c1.126,0.568 1.836,0.286 1.566,-0.62c-0.263,-0.906 -0.263,-1.67 0.002,-1.696c0.27,-0.026 -0.172,-0.847 -0.977,-1.815l-3.419,-4.129Z" fill="#ffffff" fill-rule="nonzero"/>
    <path d="M50.683,51.374c-0.757,-0.895 -1.022,-0.992 -0.582,-0.218c0.443,0.774 0.587,3.862 1.455,4.02c0.867,0.163 1.96,0.625 2.426,1.025c0.468,0.397 1.225,0.541 1.696,0.314c0.464,-0.224 1.839,-0.109 3.046,0.258l1.665,0.511c1.21,0.362 1.458,-0.056 0.554,-0.939l-2.87,-2.804c-0.906,-0.887 -2.418,-1.379 -3.365,-1.1c-0.946,0.281 -1.928,0.52 -2.184,0.532c-0.251,0.012 -1.083,-0.707 -1.841,-1.599" fill="#ffffff" fill-rule="nonzero"/>
    <path d="M19.461,47.522c-1.034,-0.734 -2.544,-0.545 -3.367,0.419l-0.994,1.159c-0.816,0.961 -2.103,1.746 -2.849,1.744c-0.747,-0 -2.039,0.776 -2.872,1.725l-1.482,1.687c-0.837,0.949 -0.615,1.216 0.481,0.594l0.369,-0.208c1.1,-0.618 2.371,-1.11 2.825,-1.082c0.45,0.026 1.593,-0.646 2.527,-1.49l0.133,-0.121c0.939,-0.847 2.001,-1.306 2.361,-1.032c0.36,0.284 1.013,0.13 1.451,-0.338c0.444,-0.464 1.72,-0.79 2.839,-0.722c1.122,0.064 1.195,-0.478 0.166,-1.209l-1.588,-1.126Z" fill="#ffffff" fill-rule="nonzero"/>
  </g>
  <text x="78" y="28" font-family="Georgia, 'Times New Roman', serif" font-size="20" font-weight="800" letter-spacing="0.6" fill="#0A143C">A Square Book</text>
  <text x="78" y="50" font-family="Segoe UI, Arial, sans-serif" font-size="16" font-weight="700" fill="#0050C8">CRM/ERP</text>
</svg>


